<svg xmlns="http://www.w3.org/2000/svg" version="1.1" xmlns:xlink="http://www.w3.org/1999/xlink" xmlns:svgjs="http://svgjs.dev/svgjs" width="1500" height="1500" viewBox="0 0 1500 1500"><rect width="1500" height="1500" fill="#000000"></rect><g transform="matrix(0.6666666666666666,0,0,0.6666666666666666,250.26132152799164,629.6781754032257)"><svg viewBox="0 0 387 93" data-background-color="#ffffff" preserveAspectRatio="xMidYMid meet" height="360" width="1500" xmlns="http://www.w3.org/2000/svg" xmlns:xlink="http://www.w3.org/1999/xlink"><g id="tight-bounds" transform="matrix(1,0,0,1,-0.10113143133276026,0.12470703125001137)"><svg viewBox="0 0 387.2022628626655 92.75058593749999" height="92.75058593749999" width="387.2022628626655"><g><svg viewBox="0 0 387.2022628626655 92.75058593749999" height="92.75058593749999" width="387.2022628626655"><g><svg viewBox="0 0 387.2022628626655 92.75058593749999" height="92.75058593749999" width="387.2022628626655"><g id="textblocktransform"><svg viewBox="0 0 387.2022628626655 92.75058593749999" height="92.75058593749999" width="387.2022628626655" id="textblock"><g><svg viewBox="0 0 387.2022628626655 92.75058593749999" height="92.75058593749999" width="387.2022628626655"><g><svg><g></g><g></g></svg></g><g><svg><g><svg></svg></g><g></g></svg></g><g id="text-0"><svg viewBox="0 0 387.2022628626655 92.75058593749999" height="92.75058593749999" width="387.2022628626655"><g transform="matrix(1,0,0,1,0,0)"><svg width="225.55615234374997" viewBox="2.54 -36.28 139.39000000000001 57.32" height="92.75058593749999" data-palette-color="#556970"><path d="M2.54-9.28L2.54-9.28Q2.54-15.04 7.52-18.55L7.52-18.55Q11.47-21.34 17.04-21.92L17.04-21.92Q17.33-21.92 18.41-21.92 19.48-21.92 21.29-21.29L21.29-21.29Q25.29-19.92 26.76-16.46L26.76-16.46Q27.34-15.09 27.34-14.14 27.34-13.18 27.29-12.79L27.29-12.79Q27.29-6.69 22.66-3.17L22.66-3.17Q18.36 0.05 11.91 0.05L11.91 0.05Q7.28 0.05 4.91-2.1 2.54-4.25 2.54-9.28ZM5.91-8.11L5.91-8.11Q5.91-5.08 7.52-4L7.52-4Q8.74-3.22 11.62-3.22 14.5-3.22 16.7-3.66 18.9-4.1 20.61-5.18L20.61-5.18Q24.27-7.52 24.27-12.45L24.27-12.45Q24.27-15.38 22.71-17.24L22.71-17.24Q21-19.24 18.21-19.24L18.21-19.24Q16.31-18.9 14.38-18.51 12.45-18.12 10.74-16.99L10.74-16.99Q7.03-14.6 5.91-8.11ZM48.44-7.71L48.48-10.69Q48.48-16.5 47.85-19.24L47.85-19.24Q48.24-19.97 46.68-19.97L46.68-19.97Q45.02-19.97 42.38-19.14 39.74-18.31 38.08-17.48L38.08-17.48Q34.13-15.58 33.69-13.77L33.69-13.77 33.69-0.49 30.42-0.49Q29.78-2.15 29.78-9.81L29.78-9.81Q29.78-16.65 30.05-19.87 30.32-23.1 30.47-23.54L30.47-23.54Q31.74-24.37 32.52-24.37L32.52-24.37Q33.74-24.37 33.74-21.48L33.74-21.48Q33.74-20.36 33.62-19.31 33.49-18.26 33.49-17.87L33.49-17.87Q41.4-23.68 45.75-23.68L45.75-23.68Q50.68-23.68 51.36-15.72L51.36-15.72Q51.66-12.94 51.66-8.01L51.66-8.01 51.61-4.15Q51.61-2 51.71 0L51.71 0Q51.22 0.29 50.93 0.29L50.93 0.29Q50.78 0.24 50.29 0.15 49.8 0.05 49.02 0L49.02 0Q48.53-1.95 48.48-3.98 48.44-6.01 48.44-7.71L48.44-7.71ZM54.63-15.09L54.73-28.32 54.58-34.62Q54.58-35.4 55.12-35.84 55.66-36.28 56.44-36.28 57.22-36.28 57.86-35.86 58.49-35.45 58.34-34.72L58.34-34.72 58.69-13.62Q61.76-17.72 66.99-20.51L66.99-20.51Q71.33-22.85 74.6-22.85L74.6-22.85Q77.49-22.85 79.05-21L79.05-21Q80.22-19.53 80.22-17.11 80.22-14.7 79.32-12.92 78.41-11.13 76.95-9.5 75.48-7.86 73.58-6.45 71.67-5.03 69.72-3.91L69.72-3.91Q66.01-1.76 62.4-0.34L62.4-0.34Q62.1-0.44 61.42-0.39 60.74-0.34 59.76-0.34L59.76-0.34Q57.12-0.34 55.12-0.98L55.12-0.98Q54.63-5.62 54.63-15.09L54.63-15.09ZM58.83-4.35L58.83-4.35Q58.83-3.81 59.83-3.81 60.83-3.81 62.3-4.2 63.76-4.59 65.84-5.54 67.91-6.49 70.01-8.01L70.01-8.01Q74.9-11.47 77.39-16.16L77.39-16.16Q76.75-18.95 73.58-18.95L73.58-18.95Q70.7-18.95 67.08-16.8L67.08-16.8Q61.96-13.72 59.76-9.18L59.76-9.18Q58.83-7.37 58.83-5.52L58.83-5.52Q58.83-5.03 58.83-4.74 58.83-4.44 58.83-4.35ZM83.39-18.95Q83.29-21.58 83.2-23.66 83.1-25.73 83.07-26.73 83.05-27.73 82.27-31.64L82.27-31.64Q82.71-32.23 83.12-32.76 83.54-33.3 84.32-33.3L84.32-33.3Q86.03-33.3 86.96-18.9L86.96-18.9Q87.44-10.55 87.44-2.2L87.44-2.2Q87.44 0.05 84.32 0.05L84.32 0.05 83.93 0Q83.93-2.54 83.78-6.49 83.64-10.45 83.56-13.38 83.49-16.31 83.39-18.95ZM91.59-9.28L91.59-9.28Q91.59-15.04 96.57-18.55L96.57-18.55Q100.53-21.34 106.09-21.92L106.09-21.92Q106.39-21.92 107.46-21.92 108.53-21.92 110.34-21.29L110.34-21.29Q114.35-19.92 115.81-16.46L115.81-16.46Q116.4-15.09 116.4-14.14 116.4-13.18 116.35-12.79L116.35-12.79Q116.35-6.69 111.71-3.17L111.71-3.17Q107.41 0.05 100.97 0.05L100.97 0.05Q96.33 0.05 93.96-2.1 91.59-4.25 91.59-9.28ZM94.96-8.11L94.96-8.11Q94.96-5.08 96.57-4L96.57-4Q97.79-3.22 100.67-3.22 103.55-3.22 105.75-3.66 107.95-4.1 109.66-5.18L109.66-5.18Q113.32-7.52 113.32-12.45L113.32-12.45Q113.32-15.38 111.76-17.24L111.76-17.24Q110.05-19.24 107.27-19.24L107.27-19.24Q105.36-18.9 103.43-18.51 101.5-18.12 99.79-16.99L99.79-16.99Q96.08-14.6 94.96-8.11ZM132.6 20.9L132.6 20.9 131.92 20.85Q130.46 20.85 128.8 21.04L128.8 21.04 126.94 21.04Q124.01 21.04 122.35 19.92L122.35 19.92Q121.47 19.34 121.47 18.16L121.47 18.16 132.7 17.63Q137.88 17.48 137.88 12.06L137.88 12.06Q137.88 11.87 137.88 11.4 137.88 10.94 137.88 9.38L137.88 9.38 138.12-6.35Q138.12-7.18 138.07-7.71L138.07-7.71Q130.16-0.34 122.84-0.34L122.84-0.34Q122.2-0.34 121.57-0.39L121.57-0.39Q118.3-0.39 118.3-3.27L118.3-3.27Q118.4-5.52 119.62-8.23 120.84-10.94 122.77-13.45 124.69-15.97 127.14-17.97L127.14-17.97Q130.9-21.04 134.41-21.04L134.41-21.04Q138.51-21.04 141.15-16.7L141.15-16.7Q141.93-5.08 141.93-0.2 141.93 4.69 141.78 7.81 141.64 10.94 141.13 13.53 140.61 16.11 139.78 17.63 138.95 19.14 137.83 19.82L137.83 19.82Q135.97 20.9 132.6 20.9ZM135.53-17.48L135.53-17.48Q134.95-17.68 133.9-17.68 132.85-17.68 131.19-16.8 129.53-15.92 128.01-14.53 126.5-13.13 125.18-11.43L125.18-11.43Q121.96-7.23 121.96-4.74L121.96-4.74Q121.96-3.96 122.4-3.56L122.4-3.56Q122.74-3.37 123.25-3.37 123.77-3.37 124.74-3.54 125.72-3.71 127.4-4.42 129.09-5.13 130.9-6.25 132.7-7.37 134.17-8.74L134.17-8.74Q137.59-11.87 137.59-14.84L137.59-14.84Q137.59-16.65 135.53-17.48Z" opacity="1" transform="matrix(1,0,0,1,0,0)" fill="#ffffff" class="wordmark-text-0" data-fill-palette-color="primary"></path></svg></g><g><svg xmlns="http://www.w3.org/2000/svg" xmlns:xlink="http://www.w3.org/1999/xlink" version="1.1" x="247.45400390624997" y="0" viewBox="1.4 17.7 97.3 64.57777777777778" enable-background="new 0 0 100 100" xml:space="preserve" height="92.75058593749999" width="139.74825895641558" class="icon-dxe-0" data-fill-palette-color="accent" id="dxe-0"></svg></g></svg></g></svg></g></svg></g></svg></g><g></g></svg></g><defs></defs><mask id="4f98a9ec-573a-4e8d-a274-2c3847928cb6"><g id="SvgjsG5465"><svg viewBox="0 0 387.2022628626655 92.75058593749999" height="92.75058593749999" width="387.2022628626655"><g><svg viewBox="0 0 387.2022628626655 92.75058593749999" height="92.75058593749999" width="387.2022628626655"><g><svg viewBox="0 0 387.2022628626655 92.75058593749999" height="92.75058593749999" width="387.2022628626655"><g id="SvgjsG5464"><svg viewBox="0 0 387.2022628626655 92.75058593749999" height="92.75058593749999" width="387.2022628626655" id="SvgjsSvg5463"><g><svg viewBox="0 0 387.2022628626655 92.75058593749999" height="92.75058593749999" width="387.2022628626655"><g><svg><g></g><g></g></svg></g><g><svg><g><svg></svg></g><g></g></svg></g><g id="SvgjsG5462"><svg viewBox="0 0 387.2022628626655 92.75058593749999" height="92.75058593749999" width="387.2022628626655"><g transform="matrix(1,0,0,1,0,0)"><svg width="225.55615234374997" viewBox="2.54 -36.28 139.39000000000001 57.32" height="92.75058593749999" data-palette-color="#556970"><path d="M2.54-9.28L2.54-9.28Q2.54-15.04 7.52-18.55L7.52-18.55Q11.47-21.34 17.04-21.92L17.04-21.92Q17.33-21.92 18.41-21.92 19.48-21.92 21.29-21.29L21.29-21.29Q25.29-19.92 26.76-16.46L26.76-16.46Q27.34-15.09 27.34-14.14 27.34-13.18 27.29-12.79L27.29-12.79Q27.29-6.69 22.66-3.17L22.66-3.17Q18.36 0.05 11.91 0.05L11.91 0.05Q7.28 0.05 4.91-2.1 2.54-4.25 2.54-9.28ZM5.91-8.11L5.91-8.11Q5.91-5.08 7.52-4L7.52-4Q8.74-3.22 11.62-3.22 14.5-3.22 16.7-3.66 18.9-4.1 20.61-5.18L20.61-5.18Q24.27-7.52 24.27-12.45L24.27-12.45Q24.27-15.38 22.71-17.24L22.71-17.24Q21-19.24 18.21-19.24L18.21-19.24Q16.31-18.9 14.38-18.51 12.45-18.12 10.74-16.99L10.74-16.99Q7.03-14.6 5.91-8.11ZM48.44-7.71L48.48-10.69Q48.48-16.5 47.85-19.24L47.85-19.24Q48.24-19.97 46.68-19.97L46.68-19.97Q45.02-19.97 42.38-19.14 39.74-18.31 38.08-17.48L38.08-17.48Q34.13-15.58 33.69-13.77L33.69-13.77 33.69-0.49 30.42-0.49Q29.78-2.15 29.78-9.81L29.78-9.81Q29.78-16.65 30.05-19.87 30.32-23.1 30.47-23.54L30.47-23.54Q31.74-24.37 32.52-24.37L32.52-24.37Q33.74-24.37 33.74-21.48L33.74-21.48Q33.74-20.36 33.62-19.31 33.49-18.26 33.49-17.87L33.49-17.87Q41.4-23.68 45.75-23.68L45.75-23.68Q50.68-23.68 51.36-15.72L51.36-15.72Q51.66-12.94 51.66-8.01L51.66-8.01 51.61-4.15Q51.61-2 51.71 0L51.71 0Q51.22 0.29 50.93 0.29L50.93 0.29Q50.78 0.24 50.29 0.15 49.8 0.05 49.02 0L49.02 0Q48.53-1.95 48.48-3.98 48.44-6.01 48.44-7.71L48.44-7.71ZM54.63-15.09L54.73-28.32 54.58-34.62Q54.58-35.4 55.12-35.84 55.66-36.28 56.44-36.28 57.22-36.28 57.86-35.86 58.49-35.45 58.34-34.72L58.34-34.72 58.69-13.62Q61.76-17.72 66.99-20.51L66.99-20.51Q71.33-22.85 74.6-22.85L74.6-22.85Q77.49-22.85 79.05-21L79.05-21Q80.22-19.53 80.22-17.11 80.22-14.7 79.32-12.92 78.41-11.13 76.95-9.5 75.48-7.86 73.58-6.45 71.67-5.03 69.72-3.91L69.72-3.91Q66.01-1.76 62.4-0.34L62.4-0.34Q62.1-0.44 61.42-0.39 60.74-0.34 59.76-0.34L59.76-0.34Q57.12-0.34 55.12-0.98L55.12-0.98Q54.63-5.62 54.63-15.09L54.63-15.09ZM58.83-4.35L58.83-4.35Q58.83-3.81 59.83-3.81 60.83-3.81 62.3-4.2 63.76-4.59 65.84-5.54 67.91-6.49 70.01-8.01L70.01-8.01Q74.9-11.47 77.39-16.16L77.39-16.16Q76.75-18.95 73.58-18.95L73.58-18.95Q70.7-18.95 67.08-16.8L67.08-16.8Q61.96-13.72 59.76-9.18L59.76-9.18Q58.83-7.37 58.83-5.52L58.83-5.52Q58.83-5.03 58.83-4.74 58.83-4.44 58.83-4.35ZM83.39-18.95Q83.29-21.58 83.2-23.66 83.1-25.73 83.07-26.73 83.05-27.73 82.27-31.64L82.27-31.64Q82.71-32.23 83.12-32.76 83.54-33.3 84.32-33.3L84.32-33.3Q86.03-33.3 86.96-18.9L86.96-18.9Q87.44-10.55 87.44-2.2L87.44-2.2Q87.44 0.05 84.32 0.05L84.32 0.05 83.93 0Q83.93-2.54 83.78-6.49 83.64-10.45 83.56-13.38 83.49-16.31 83.39-18.95ZM91.59-9.28L91.59-9.28Q91.59-15.04 96.57-18.55L96.57-18.55Q100.53-21.34 106.09-21.92L106.09-21.92Q106.39-21.92 107.46-21.92 108.53-21.92 110.34-21.29L110.34-21.29Q114.35-19.92 115.81-16.46L115.81-16.46Q116.4-15.09 116.4-14.14 116.4-13.18 116.35-12.79L116.35-12.79Q116.35-6.69 111.71-3.17L111.71-3.17Q107.41 0.05 100.97 0.05L100.97 0.05Q96.33 0.05 93.96-2.1 91.59-4.25 91.59-9.28ZM94.96-8.11L94.96-8.11Q94.96-5.08 96.57-4L96.57-4Q97.79-3.22 100.67-3.22 103.55-3.22 105.75-3.66 107.95-4.1 109.66-5.18L109.66-5.18Q113.32-7.52 113.32-12.45L113.32-12.45Q113.32-15.38 111.76-17.24L111.76-17.24Q110.05-19.24 107.27-19.24L107.27-19.24Q105.36-18.9 103.43-18.51 101.5-18.12 99.79-16.99L99.79-16.99Q96.08-14.6 94.96-8.11ZM132.6 20.9L132.6 20.9 131.92 20.85Q130.46 20.85 128.8 21.04L128.8 21.04 126.94 21.04Q124.01 21.04 122.35 19.92L122.35 19.92Q121.47 19.34 121.47 18.16L121.47 18.16 132.7 17.63Q137.88 17.48 137.88 12.06L137.88 12.06Q137.88 11.87 137.88 11.4 137.88 10.94 137.88 9.38L137.88 9.38 138.12-6.35Q138.12-7.18 138.07-7.71L138.07-7.71Q130.16-0.34 122.84-0.34L122.84-0.34Q122.2-0.34 121.57-0.39L121.57-0.39Q118.3-0.39 118.3-3.27L118.3-3.27Q118.4-5.52 119.62-8.23 120.84-10.94 122.77-13.45 124.69-15.97 127.14-17.97L127.14-17.97Q130.9-21.04 134.41-21.04L134.41-21.04Q138.51-21.04 141.15-16.7L141.15-16.7Q141.93-5.08 141.93-0.2 141.93 4.69 141.78 7.81 141.64 10.94 141.13 13.53 140.61 16.11 139.78 17.63 138.95 19.14 137.83 19.82L137.83 19.82Q135.97 20.9 132.6 20.9ZM135.53-17.48L135.53-17.48Q134.95-17.68 133.9-17.68 132.85-17.68 131.19-16.8 129.53-15.92 128.01-14.53 126.5-13.13 125.18-11.43L125.18-11.43Q121.96-7.23 121.96-4.74L121.96-4.74Q121.96-3.96 122.4-3.56L122.4-3.56Q122.74-3.37 123.25-3.37 123.77-3.37 124.74-3.54 125.72-3.71 127.4-4.42 129.09-5.13 130.9-6.25 132.7-7.37 134.17-8.74L134.17-8.74Q137.59-11.87 137.59-14.84L137.59-14.84Q137.59-16.65 135.53-17.48Z" opacity="1" transform="matrix(1,0,0,1,0,0)" fill="black" class="wordmark-text-0"></path></svg></g><g><svg xmlns="http://www.w3.org/2000/svg" xmlns:xlink="http://www.w3.org/1999/xlink" version="1.1" x="247.45400390624997" y="0" viewBox="1.4 17.7 97.3 64.57777777777778" enable-background="new 0 0 100 100" xml:space="preserve" height="92.75058593749999" width="139.74825895641558" class="icon-dxe-0" data-fill-palette-color="accent" id="SvgjsSvg5461"><path d="M89.9 17.7H43C38.2 17.7 34.3 21.6 34.3 26.4V61.8C34.3 66.6 38.2 70.5 43 70.5H51.8V80.5C51.8 82.1 53.7 82.9 54.8 81.7L66 70.6S66 70.5 66.1 70.5H90C94.8 70.5 98.7 66.6 98.7 61.8V26.4C98.6 21.6 94.7 17.7 89.9 17.7M79.7 41.3L73.7 46.4 75.6 54C76 55.4 74.4 56.6 73.1 55.8L66.4 51.7 59.7 55.8C58.4 56.6 56.9 55.4 57.2 54L59.1 46.4 53.1 41.3C52 40.3 52.6 38.5 54 38.4L61.8 37.8 64.8 30.5C65.4 29.1 67.3 29.1 67.8 30.5L70.8 37.8 78.6 38.4C80.2 38.5 80.8 40.4 79.7 41.3M26.9 28.2C26.9 30.4 25.1 32.2 22.9 32.2H5.4C3.2 32.2 1.4 30.4 1.4 28.2S3.2 24.2 5.4 24.2H23C25.2 24.3 26.9 26 26.9 28.2M26.9 44.1C26.9 46.3 25.1 48.1 22.9 48.1H9.9C7.7 48.1 5.9 46.3 5.9 44.1S7.7 40.1 9.9 40.1H22.9C25.2 40.1 26.9 41.9 26.9 44.1M26.9 60C26.9 62.2 25.1 64 22.9 64H15C12.8 64 11 62.2 11 60S12.8 56 15 56H23C25.2 56 26.9 57.8 26.9 60" fill="white"></path></svg></g></svg></g></svg></g></svg></g></svg></g><g></g></svg></g><defs><mask></mask></defs></svg><rect width="387.2022628626655" height="92.75058593749999" fill="black" stroke="none" visibility="hidden"></rect></g></mask><linearGradient x1="0.054" x2="0.941" y1="0.5" y2="0.5" id="3969820c-199e-4fde-bcd3-f978aab56cd5"><stop stop-color="#26282a" offset="0"></stop><stop stop-color="#9e9fa0" offset="0.498"></stop><stop stop-color="#26282a" offset="1"></stop></linearGradient><rect width="387.2022628626655" height="92.7505859375" fill="#ffffff" mask="url(#4f98a9ec-573a-4e8d-a274-2c3847928cb6)" data-fill-palette-color="accent"></rect></svg><rect width="387.2022628626655" height="92.75058593749999" fill="none" stroke="none" visibility="hidden"></rect></g></svg></g></svg>